<svg height='100px' width='100px'  fill="#000000" xmlns="http://www.w3.org/2000/svg" xmlns:xlink="http://www.w3.org/1999/xlink" version="1.1" x="0px" y="0px" viewBox="0 0 150 150" enable-background="new 0 0 150 150" xml:space="preserve"><metadata><?xpacket begin="&#65279;" id="W5M0MpCehiHzreSzNTczkc9d"?><x:xmpmeta xmlns:x="adobe:ns:meta/" x:xmptk="Adobe XMP Core 5.3-c011 66.145661, 2012/02/06-14:56:27        "></x:xmpmeta><?xpacket end="w"?></metadata><g><path d="M137.718,115.188c-0.196-8.188-7.127-11.158-11.741-11.158c-0.003,0-0.007,0-0.01,0H24.929   c-8.203,0-12.254,5.522-12.629,10.978c-0.033,0.452-0.01,6.721-0.009,6.747c0.342,8.078,7.204,11.008,11.737,11.008   c0.001,0,0.002,0,0.003,0l101.947-0.003c7.92,0,11.253-5.822,11.702-10.821C137.73,121.348,137.719,115.293,137.718,115.188z    M129.701,121.333c-0.351,3.427-2.711,3.427-3.734,3.427l-101.905,0.003c-1.357-0.037-3.627-0.517-3.776-3.302   c-0.005-0.607-0.007-5.199,0-5.974c0.194-2.294,1.755-3.457,4.643-3.457l100.996,0c1.696,0.041,3.731,0.654,3.794,3.277   C129.72,115.674,129.718,120.503,129.701,121.333z"></path><path d="M24.027,89.365c0.001,0,0.002,0,0.003,0l101.947-0.002c7.92,0,11.253-5.822,11.702-10.821   c0.05-0.577,0.04-6.646,0.038-6.75c-0.196-8.188-7.127-11.158-11.741-11.158c-0.003,0-0.007,0-0.01,0H24.929   c-8.203,0-12.254,5.522-12.629,10.978c-0.033,0.45-0.01,6.721-0.009,6.748C12.632,86.436,19.495,89.365,24.027,89.365z    M20.286,72.09c0.194-2.294,1.755-3.457,4.643-3.457l100.996,0c1.696,0.041,3.731,0.654,3.794,3.277   c0.001,0.368-0.001,5.197-0.018,6.026c-0.351,3.427-2.711,3.427-3.734,3.427L24.062,81.365c-1.357-0.037-3.627-0.517-3.776-3.3   C20.281,77.459,20.278,72.866,20.286,72.09z"></path><path d="M24.026,45.969c0.001,0,0.003,0,0.004,0l101.947-0.002c7.919,0,11.253-5.822,11.702-10.819   c0.05-0.579,0.04-6.648,0.039-6.752c-0.196-8.188-7.127-11.158-11.741-11.158c-0.003,0-0.007,0-0.01,0H24.929   c-8.203,0-12.254,5.522-12.629,10.978c-0.033,0.45-0.01,6.721-0.009,6.748C12.632,43.039,19.494,45.969,24.026,45.969z    M20.286,28.694c0.194-2.294,1.755-3.457,4.643-3.457l100.996,0c1.696,0.041,3.731,0.654,3.794,3.277   c0.001,0.368-0.001,5.197-0.018,6.026c-0.352,3.426-2.711,3.427-3.734,3.427L24.031,37.969c-0.003,0-0.004,0-0.005,0   c-0.844,0-3.577-0.239-3.74-3.3C20.281,34.063,20.278,29.469,20.286,28.694z"></path></g></svg>