<svg height='100px' width='100px'  fill="#000000" xmlns="http://www.w3.org/2000/svg" xmlns:xlink="http://www.w3.org/1999/xlink" version="1.1" x="0px" y="0px" viewBox="0 0 24 24" style="enable-background:new 0 0 24 24;" xml:space="preserve"><g><path d="M19.153,4.847h-3.11V3.603c0-0.172-0.139-0.311-0.311-0.311c-0.172,0-0.311,0.139-0.311,0.311v2.799   c0,0.172,0.139,0.311,0.311,0.311c0.172,0,0.311-0.139,0.311-0.311V5.469h3.11c0.515,0,0.933,0.419,0.933,0.933v2.799H3.914V6.402   c0-0.515,0.419-0.933,0.933-0.933h2.488V4.847H4.847c-0.857,0-1.555,0.698-1.555,1.555v12.751c0,0.857,0.698,1.555,1.555,1.555   h14.307c0.857,0,1.555-0.698,1.555-1.555V6.402C20.708,5.544,20.011,4.847,19.153,4.847z M20.086,19.153   c0,0.515-0.419,0.933-0.933,0.933H4.847c-0.515,0-0.933-0.419-0.933-0.933v-9.33h16.173V19.153z"></path><path d="M8.268,6.713c0.172,0,0.311-0.139,0.311-0.311V5.469h6.22V4.847h-6.22V3.603c0-0.172-0.139-0.311-0.311-0.311   c-0.172,0-0.311,0.139-0.311,0.311v2.799C7.957,6.574,8.096,6.713,8.268,6.713z"></path></g></svg>