<svg height='100px' width='100px'  fill="#000000" xmlns="http://www.w3.org/2000/svg" xmlns:xlink="http://www.w3.org/1999/xlink" version="1.1" x="0px" y="0px" viewBox="0 0 100 100" enable-background="new 0 0 100 100" xml:space="preserve"><path d="M67.02,87.181H32.98c-5.754,0-10.436-4.682-10.436-10.436V52.747c0-5.754,4.682-10.436,10.436-10.436h34.04  c5.754,0,10.436,4.682,10.436,10.436v23.999C77.456,82.5,72.774,87.181,67.02,87.181z M32.98,45.311c-4.1,0-7.436,3.336-7.436,7.436  v23.999c0,4.1,3.336,7.436,7.436,7.436h34.04c4.1,0,7.436-3.336,7.436-7.436V52.747c0-4.1-3.336-7.436-7.436-7.436H32.98z"></path><polygon points="46.547,71.742 38.187,63.381 40.308,61.26 46.547,67.5 59.692,54.355 61.813,56.476 "></polygon><path d="M40.644,44.583h-3v-9.862c0-6.813,5.543-12.356,12.355-12.356c6.813,0,12.356,5.543,12.356,12.356v9.807h-3v-9.807  c0-5.159-4.197-9.356-9.356-9.356c-5.158,0-9.355,4.197-9.355,9.356V44.583z"></path><path d="M71.902,44.583h-3v-9.862c0-10.423-8.479-18.902-18.902-18.902s-18.902,8.479-18.902,18.902v9.862h-3v-9.862  c0-12.077,9.825-21.902,21.902-21.902s21.902,9.825,21.902,21.902V44.583z"></path></svg>