<svg height='100px' width='100px'  fill="#000000" xmlns="http://www.w3.org/2000/svg" xmlns:xlink="http://www.w3.org/1999/xlink" version="1.1" x="0px" y="0px" viewBox="0 0 1024 1024" style="enable-background:new 0 0 1024 1024;" xml:space="preserve"><g><path d="M248,744.1c-5.7,0-11.4-1.2-16.8-3.6c-10-4.5-17.6-12.6-21.5-22.8l-76.7-202.2c-3.9-10.2-3.5-21.3,0.9-31.3   c4.5-10,12.6-17.6,22.8-21.5l265.9-100.9l105.8,278.7L262.6,741.4C257.9,743.2,253,744.1,248,744.1z M405.3,400.6l-237.8,90.3   c-2.7,1-4.9,3.1-6.1,5.7c-1.2,2.7-1.3,5.6-0.3,8.4l76.7,202.2c1,2.7,3.1,4.9,5.7,6.1c2.7,1.2,5.6,1.3,8.4,0.3l237.8-90.3   L405.3,400.6z"></path><path d="M149.8,733.5c-21.6,0-42-13.2-50.1-34.6l-36.5-96.3c-10.5-27.6,3.5-58.6,31.1-69.1l68.1-25.8l74.6,196.4   L168.7,730C162.5,732.4,156.1,733.5,149.8,733.5z M144.8,546.4l-40,15.2c-12.1,4.6-18.3,18.2-13.7,30.4l36.5,96.3   c4.6,12.1,18.2,18.3,30.4,13.7l40-15.2L144.8,546.4z"></path><path d="M837.3,704.2c-1.4,0-2.8-0.1-4.2-0.4h0l-334.9-58.7L396.9,378.5l211.6-266.1c5.5-6.9,14.3-10.4,23.1-9   c8.7,1.4,16.1,7.3,19.2,15.6l209.4,551.9c3.1,8.3,1.6,17.6-4,24.4C851.6,701,844.5,704.2,837.3,704.2z M520.1,618.5l308.8,54.1   L626.2,138.5L431.1,383.9L520.1,618.5z"></path><path d="M385.4,920.9c-7.4,0-14.5-4.1-18-11.1L264.9,708.5l168.7-64l20,52.6c7.4,19.6,4.5,41.4-7.8,58.4l-10.2,14.1   l47.9,91.3c2.7,5.1,3.1,11.2,1,16.6c-2.1,5.4-6.3,9.7-11.8,11.8l-80.1,30.4C390.3,920.5,387.8,920.9,385.4,920.9z M306.8,724.6   l83.3,163.8l61.7-23.4L400.3,767l21.2-29.2c6.4-8.7,7.9-20,4-30.1l-9.3-24.5L306.8,724.6z"></path><rect x="874.6" y="296.6" transform="matrix(0.3548 0.9349 -0.9349 0.3548 895.6475 -609.7243)" width="30" height="94.9"></rect><rect x="779.6" y="149.5" transform="matrix(0.7218 0.6921 -0.6921 0.7218 357.4048 -495.1239)" width="30" height="95"></rect><rect x="868.6" y="502.2" transform="matrix(0.9967 8.088160e-002 -8.088160e-002 0.9967 44.8301 -72.3997)" width="94.9" height="30"></rect><rect x="289.2" y="427.1" transform="matrix(0.3548 0.9349 -0.9349 0.3548 669.0283 41.8383)" width="30" height="157.1"></rect></g></svg>